<?xml version="1.0" encoding="UTF-8"?>
<svg id="Logos" xmlns="http://www.w3.org/2000/svg" xmlns:xlink="http://www.w3.org/1999/xlink" viewBox="0 0 1102.13 608.19">
  <defs>
    <style>
      .Gradiente_VerdeCyan_ISO_Original {
        fill: url(#linear-gradient-2);
      }

      .cls-1 {
        fill: #14144c;
      }

      .Gradiente_MagentaAzul_ISO_original {
        fill: url(#linear-gradient);
      }
    </style>
    <linearGradient id="linear-gradient" x1="221.08" y1="236.4" x2="221.08" y2="158.45" gradientUnits="userSpaceOnUse">
      <stop offset="0" stop-color="#b00ee5"/>
      <stop offset=".2" stop-color="#b00ee5"/>
      <stop offset=".8" stop-color="#2420c9"/>
      <stop offset="1" stop-color="#2420c9"/>
    </linearGradient>
    <linearGradient id="linear-gradient-2" x1="220.58" y1="338.47" x2="343.12" y2="338.47" gradientUnits="userSpaceOnUse">
      <stop offset="0" stop-color="#10a4c6"/>
      <stop offset=".2" stop-color="#10a4c6"/>
      <stop offset=".37" stop-color="#16aea6"/>
      <stop offset=".75" stop-color="#26c855"/>
      <stop offset=".8" stop-color="#29cc4b"/>
      <stop offset="1" stop-color="#29cc4b"/>
    </linearGradient>
  </defs>
  <g>
    <g>
      <path class="cls-1" d="M464.72,212.45c-2.23-1.87-4.9-3.44-8.02-4.69l-9.84-3.98c-2.11-.94-4.06-1.78-5.86-2.52-1.8-.74-3.2-1.64-4.22-2.69-1.02-1.05-1.52-2.32-1.52-3.81,0-2.19,.88-3.88,2.64-5.1,1.76-1.21,4.12-1.82,7.09-1.82,2.58,0,5.17,.51,7.79,1.52,2.62,1.02,5.17,2.46,7.67,4.33l9.14-11.13c-3.2-3.12-6.95-5.51-11.25-7.15-4.29-1.64-8.75-2.46-13.35-2.46-5.31,0-10.01,1.04-14.11,3.1-4.1,2.07-7.3,4.8-9.61,8.2-2.3,3.4-3.46,7.2-3.46,11.42,0,3.75,.72,6.97,2.17,9.66,1.44,2.69,3.36,4.96,5.74,6.79,2.38,1.84,4.86,3.34,7.44,4.51l9.96,4.1c2.26,.94,4.22,1.8,5.86,2.58,1.64,.78,2.91,1.66,3.81,2.64,.9,.98,1.35,2.28,1.35,3.92,0,2.27-.88,4.06-2.64,5.39-1.76,1.33-4.43,1.99-8.02,1.99-3.36,0-6.78-.66-10.25-1.99-3.48-1.33-6.58-3.16-9.31-5.51l-9.14,11.25c3.9,3.75,8.32,6.54,13.24,8.38s9.92,2.75,14.99,2.75c6.09,0,11.28-1.09,15.58-3.28,4.29-2.19,7.57-5.08,9.84-8.67,2.26-3.59,3.4-7.5,3.4-11.71,0-3.59-.63-6.69-1.87-9.31-1.25-2.62-2.99-4.86-5.21-6.74Z"/>
      <path class="cls-1" d="M533.59,247.35c5.19-3.2,9.25-7.77,12.18-13.7,2.93-5.93,4.39-13.08,4.39-21.44s-1.46-15.34-4.39-21.2c-2.93-5.86-6.99-10.31-12.18-13.35-5.19-3.05-11.23-4.57-18.1-4.57s-12.81,1.52-18.04,4.57c-5.23,3.05-9.31,7.5-12.24,13.35-2.93,5.86-4.39,12.93-4.39,21.2s1.46,15.5,4.39,21.44c2.93,5.94,7.01,10.5,12.24,13.7,5.23,3.2,11.25,4.8,18.04,4.8s12.9-1.6,18.1-4.8Zm-32.97-21.9c-1.41-3.75-2.11-8.16-2.11-13.24s.7-9.41,2.11-13c1.41-3.59,3.38-6.36,5.92-8.32,2.54-1.95,5.52-2.93,8.96-2.93s6.54,.98,9.08,2.93c2.54,1.95,4.49,4.73,5.86,8.32,1.37,3.59,2.05,7.93,2.05,13s-.68,9.49-2.05,13.24c-1.37,3.75-3.32,6.66-5.86,8.73-2.54,2.07-5.56,3.1-9.08,3.1s-6.42-1.03-8.96-3.1c-2.54-2.07-4.51-4.98-5.92-8.73Z"/>
      <path class="cls-1" d="M607.39,250.05c3.79-1.41,6.95-3.55,9.49-6.44,2.54-2.89,4.43-6.6,5.68-11.13,1.25-4.53,1.87-9.88,1.87-16.05v-41.93h-16.63v43.57c0,4.69-.53,8.43-1.58,11.25-1.05,2.81-2.6,4.84-4.63,6.09-2.03,1.25-4.49,1.87-7.38,1.87s-5.19-.62-7.15-1.87c-1.95-1.25-3.44-3.28-4.45-6.09-1.02-2.81-1.52-6.56-1.52-11.25v-43.57h-17.34v41.93c0,6.17,.66,11.52,1.99,16.05,1.33,4.53,3.3,8.24,5.92,11.13,2.62,2.89,5.82,5.04,9.61,6.44,3.79,1.41,8.1,2.11,12.94,2.11s9.39-.7,13.18-2.11Z"/>
      <polygon class="cls-1" points="673.98 250.75 673.98 188.9 694.95 188.9 694.95 174.49 635.68 174.49 635.68 188.9 656.64 188.9 656.64 250.75 673.98 250.75"/>
      <polygon class="cls-1" points="750.12 250.75 767.45 250.75 767.45 174.49 750.12 174.49 750.12 203.78 723.76 203.78 723.76 174.49 706.54 174.49 706.54 250.75 723.76 250.75 723.76 218.89 750.12 218.89 750.12 250.75"/>
      <polygon class="cls-1" points="802.36 218.65 828.36 218.65 828.36 204.25 802.36 204.25 802.36 188.9 832.93 188.9 832.93 174.38 785.14 174.38 785.14 250.75 834.1 250.75 834.1 236.22 802.36 236.22 802.36 218.65"/>
      <path class="cls-1" d="M901.92,212.45c2.65-3.67,3.98-8.43,3.98-14.29s-1.33-10.76-3.98-14.23c-2.66-3.47-6.21-5.93-10.66-7.38-4.45-1.44-9.37-2.17-14.76-2.17h-27.53v76.37h17.22v-27.53h9.51l14.62,27.53h19.33l-17.31-30.63c3.95-1.76,7.15-4.31,9.58-7.67Zm-35.73-24.36h8.9c4.53,0,7.98,.74,10.37,2.23,2.38,1.48,3.57,4.1,3.57,7.85s-1.19,6.58-3.57,8.49c-2.38,1.91-5.84,2.87-10.37,2.87h-8.9v-21.44Z"/>
      <path class="cls-1" d="M963.77,174.49v26.94c0,4.53,.25,9.25,.76,14.17,.51,4.92,1,9.45,1.46,13.59h-.47c-1.17-2.97-2.38-5.93-3.63-8.9-1.25-2.97-2.54-5.74-3.87-8.32l-19.56-37.48h-18.04v76.25h16.4v-27.06c0-4.61-.23-9.33-.7-14.17-.47-4.84-.98-9.33-1.52-13.47h.47c1.25,2.89,2.5,5.84,3.75,8.84,1.25,3.01,2.5,5.8,3.75,8.38l19.68,37.48h18.04v-76.25h-16.52Z"/>
      <polygon class="cls-1" points="436.9 275.46 419.68 275.46 419.68 351.71 467.12 351.71 467.12 337.19 436.9 337.19 436.9 275.46"/>
      <rect class="cls-1" x="480" y="275.46" width="17.22" height="76.25"/>
      <path class="cls-1" d="M545.95,322.78h12.65v13.12c-.94,.78-2.15,1.37-3.63,1.76-1.48,.39-3.01,.58-4.57,.58-4.76,0-8.73-.98-11.89-2.93-3.16-1.95-5.55-4.78-7.15-8.49-1.6-3.71-2.4-8.18-2.4-13.41s.86-9.45,2.58-13.12c1.72-3.67,4.1-6.5,7.15-8.49,3.05-1.99,6.52-2.99,10.42-2.99,3.28,0,6.03,.49,8.26,1.46,2.23,.98,4.28,2.32,6.15,4.04l9.02-10.42c-2.5-2.73-5.74-5.08-9.72-7.03-3.98-1.95-8.75-2.93-14.29-2.93-5.08,0-9.86,.9-14.35,2.69-4.49,1.8-8.45,4.41-11.89,7.85-3.44,3.44-6.13,7.63-8.08,12.59-1.95,4.96-2.93,10.6-2.93,16.93,0,8.59,1.66,15.79,4.98,21.61,3.32,5.82,7.81,10.19,13.47,13.12,5.66,2.93,11.97,4.39,18.92,4.39,5.39,0,10.29-.9,14.7-2.69,4.41-1.8,7.91-3.98,10.48-6.56v-35.14h-27.88v14.06Z"/>
      <polygon class="cls-1" points="632.86 304.74 606.51 304.74 606.51 275.46 589.29 275.46 589.29 351.71 606.51 351.71 606.51 319.85 632.86 319.85 632.86 351.71 650.2 351.71 650.2 275.46 632.86 275.46 632.86 304.74"/>
      <polygon class="cls-1" points="661.79 289.86 682.76 289.86 682.76 351.71 700.1 351.71 700.1 289.86 721.07 289.86 721.07 275.46 661.79 275.46 661.79 289.86"/>
      <path class="cls-1" d="M774.77,313.41c-2.23-1.87-4.9-3.44-8.02-4.69l-9.84-3.98c-2.11-.94-4.06-1.78-5.86-2.52-1.8-.74-3.2-1.64-4.22-2.69-1.02-1.05-1.52-2.32-1.52-3.81,0-2.19,.88-3.88,2.64-5.1,1.76-1.21,4.12-1.82,7.09-1.82,2.58,0,5.17,.51,7.79,1.52,2.62,1.02,5.17,2.46,7.67,4.33l9.14-11.13c-3.2-3.12-6.95-5.51-11.25-7.15-4.29-1.64-8.75-2.46-13.35-2.46-5.31,0-10.01,1.04-14.11,3.1-4.1,2.07-7.3,4.8-9.61,8.2-2.3,3.4-3.46,7.2-3.46,11.42,0,3.75,.72,6.97,2.17,9.66,1.44,2.69,3.36,4.96,5.74,6.79,2.38,1.84,4.86,3.34,7.44,4.51l9.96,4.1c2.26,.94,4.22,1.8,5.86,2.58,1.64,.78,2.91,1.66,3.81,2.64,.9,.98,1.35,2.28,1.35,3.92,0,2.27-.88,4.06-2.64,5.39-1.76,1.33-4.43,1.99-8.02,1.99-3.36,0-6.78-.66-10.25-1.99-3.48-1.33-6.58-3.16-9.31-5.5l-9.14,11.25c3.9,3.75,8.32,6.54,13.24,8.38s9.92,2.75,14.99,2.75c6.09,0,11.28-1.09,15.58-3.28,4.29-2.19,7.57-5.08,9.84-8.67,2.26-3.59,3.4-7.5,3.4-11.71,0-3.59-.63-6.69-1.87-9.31-1.25-2.62-2.99-4.86-5.21-6.74Z"/>
    </g>
    <g>
      <polygon class="Gradiente_VerdeCyan_ISO_Original" points="266.64 250.61 220.58 426.38 343.12 250.55 266.64 250.61"/>
      <polygon class="Gradiente_MagentaAzul_ISO_original" points="166.22 236.4 255.6 236.32 275.95 158.66 166.22 236.4"/>
      <path class="cls-1" d="M356.7,218.37c-11.28,.05-20.79,7.6-23.86,17.89l-62.46,.05,17.67-67.44c15.07-.11,27.27-12.45,27.2-27.53-.07-15.11-12.42-27.35-27.53-27.28-15.11,.07-27.35,12.42-27.28,27.53,.02,3.28,.61,6.42,1.68,9.33l-99.95,70.81c-5.02-4.25-11.51-6.8-18.58-6.77-15.77,.07-28.54,12.96-28.46,28.73,.07,15.77,12.96,28.54,28.73,28.46,13.26-.06,24.4-9.19,27.56-21.47l80.43-.06-47.65,181.83c-.29,0-.58-.02-.87-.02-17.08,.08-30.91,14.04-30.83,31.13,.08,17.08,14.04,30.91,31.13,30.83,17.08-.08,30.91-14.04,30.83-31.13-.04-7.86-3.02-15.03-7.89-20.48l122.42-175.65c2.5,.83,5.17,1.29,7.95,1.28,13.8-.07,24.97-11.34,24.9-25.14-.07-13.8-11.34-24.97-25.14-24.9Zm-68.92-90.01c7.23-.03,13.13,5.82,13.17,13.05,.03,7.23-5.82,13.13-13.05,13.17-7.23,.03-13.13-5.82-13.17-13.05-.03-7.23,5.82-13.13,13.05-13.17Zm-143.99,129.5c-7.88,.04-14.33-6.35-14.37-14.23s6.35-14.33,14.23-14.37c7.88-.04,14.33,6.35,14.37,14.23,.04,7.88-6.35,14.33-14.23,14.37Zm27.62-21.47c-.27-1.02-.59-2.02-.96-3l99.95-70.81c1.19,.99,2.47,1.87,3.82,2.65l-18.63,71.09-84.18,.07Zm95.22,14.22l66.22-.05c.93,3.09,2.44,5.93,4.4,8.39l-116.68,167.43,46.06-175.77Zm-63.08,229.48c-9.2,.04-16.72-7.4-16.76-16.6-.04-9.2,7.4-16.72,16.6-16.76,9.2-.04,16.72,7.4,16.76,16.6,.04,9.2-7.4,16.72-16.6,16.76Zm153.31-225.98c-5.91,.03-10.75-4.76-10.77-10.67-.03-5.91,4.76-10.75,10.67-10.77s10.75,4.76,10.77,10.67-4.76,10.75-10.67,10.77Z"/>
    </g>
  </g>
  <g>
    <path class="cls-1" d="M805.63,324.48c-1.97,0-3.62-.7-4.95-2.11-1.33-1.4-2-3.12-2-5.14s.67-3.81,2-5.21c1.33-1.41,2.98-2.11,4.95-2.11s3.68,.7,4.99,2.11c1.31,1.4,1.96,3.14,1.96,5.21s-.65,3.73-1.96,5.14-2.97,2.11-4.99,2.11Z"/>
    <path class="cls-1" d="M824.63,323.6v-38.22h-13.08v-9.91h37.85v9.91h-13.01v38.22h-11.75Z"/>
    <path class="cls-1" d="M856.71,323.6v-48.12h30.68v9.91h-18.85v8.58h16.04v9.91h-16.04v9.83h19.59v9.91h-31.42Z"/>
    <path class="cls-1" d="M918.36,324.48c-4.09,0-7.89-.91-11.38-2.73-3.5-1.82-6.3-4.57-8.39-8.24s-3.14-8.22-3.14-13.64c0-4.04,.62-7.61,1.85-10.72,1.23-3.11,2.93-5.75,5.1-7.95,2.17-2.19,4.62-3.84,7.35-4.95,2.74-1.11,5.63-1.66,8.69-1.66s5.97,.62,8.46,1.85c2.49,1.23,4.57,2.71,6.25,4.44l-6.21,7.24c-1.18-1.13-2.44-1.97-3.77-2.51-1.33-.54-2.81-.81-4.43-.81-2.02,0-3.87,.59-5.54,1.77-1.68,1.18-3.04,2.88-4.1,5.1-1.06,2.22-1.59,4.83-1.59,7.84s.5,5.77,1.52,7.98c1.01,2.22,2.39,3.91,4.14,5.06,1.75,1.16,3.76,1.74,6.03,1.74,1.82,0,3.45-.37,4.88-1.11,1.43-.74,2.66-1.6,3.7-2.59l5.91,6.95c-2.07,2.37-4.39,4.12-6.95,5.25-2.56,1.13-5.35,1.7-8.35,1.7Z"/>
    <path class="cls-1" d="M940.83,323.6v-48.12h11.83v18.18h15.52v-18.18h11.75v48.12h-11.75v-19.59h-15.52v19.59h-11.83Z"/>
  </g>
</svg>